<svg width="32" height="32" viewBox="0 0 32 32" fill="none" xmlns="http://www.w3.org/2000/svg">
<g clip-path="url(#clip0_3_2)">
<circle cx="16" cy="16" r="16" fill="black"/>
<path d="M7.66 19.18C7.18 19.18 6.73 19.11 6.31 18.97C5.89 18.82 5.52 18.61 5.2 18.34C4.88 18.06 4.63 17.72 4.45 17.32L6.145 16.54C6.295 16.78 6.5 16.99 6.76 17.17C7.02 17.34 7.32 17.425 7.66 17.425C7.99 17.425 8.245 17.38 8.425 17.29C8.605 17.19 8.695 17.05 8.695 16.87C8.695 16.69 8.62 16.56 8.47 16.48C8.33 16.39 8.135 16.315 7.885 16.255L7.195 16.075C6.475 15.885 5.905 15.585 5.485 15.175C5.075 14.755 4.87 14.275 4.87 13.735C4.87 12.965 5.115 12.37 5.605 11.95C6.105 11.53 6.81 11.32 7.72 11.32C8.19 11.32 8.625 11.39 9.025 11.53C9.435 11.67 9.785 11.865 10.075 12.115C10.365 12.365 10.565 12.655 10.675 12.985L9.04 13.735C8.97 13.535 8.8 13.375 8.53 13.255C8.26 13.125 7.99 13.06 7.72 13.06C7.45 13.06 7.24 13.12 7.09 13.24C6.95 13.35 6.88 13.505 6.88 13.705C6.88 13.835 6.95 13.945 7.09 14.035C7.23 14.115 7.43 14.185 7.69 14.245L8.665 14.485C9.155 14.605 9.545 14.8 9.835 15.07C10.135 15.33 10.35 15.625 10.48 15.955C10.62 16.275 10.69 16.59 10.69 16.9C10.69 17.35 10.555 17.75 10.285 18.1C10.025 18.44 9.665 18.705 9.205 18.895C8.755 19.085 8.24 19.18 7.66 19.18ZM14.3323 19L17.1823 11.5H19.2223L16.1473 19H14.3323ZM14.1673 19L11.0923 11.5H13.1323L15.9823 19H14.1673ZM23.3179 22.195C22.7479 22.195 22.2429 22.155 21.8029 22.075C21.3629 21.995 20.9929 21.89 20.6929 21.76C20.3929 21.63 20.1479 21.5 19.9579 21.37L20.7379 19.78C20.8779 19.86 21.0629 19.95 21.2929 20.05C21.5229 20.16 21.7979 20.25 22.1179 20.32C22.4379 20.4 22.8079 20.44 23.2279 20.44C23.6279 20.44 23.9779 20.36 24.2779 20.2C24.5879 20.05 24.8279 19.81 24.9979 19.48C25.1779 19.16 25.2679 18.75 25.2679 18.25V11.5H27.2479V18.19C27.2479 19.03 27.0879 19.75 26.7679 20.35C26.4479 20.96 25.9929 21.42 25.4029 21.73C24.8229 22.04 24.1279 22.195 23.3179 22.195ZM22.9279 18.79C22.2379 18.79 21.6379 18.64 21.1279 18.34C20.6279 18.04 20.2379 17.62 19.9579 17.08C19.6779 16.54 19.5379 15.9 19.5379 15.16C19.5379 14.38 19.6779 13.705 19.9579 13.135C20.2379 12.555 20.6279 12.11 21.1279 11.8C21.6379 11.48 22.2379 11.32 22.9279 11.32C23.5279 11.32 24.0479 11.48 24.4879 11.8C24.9279 12.11 25.2679 12.555 25.5079 13.135C25.7479 13.715 25.8679 14.405 25.8679 15.205C25.8679 15.925 25.7479 16.555 25.5079 17.095C25.2679 17.635 24.9279 18.055 24.4879 18.355C24.0479 18.645 23.5279 18.79 22.9279 18.79ZM23.4979 17.125C23.8379 17.125 24.1329 17.04 24.3829 16.87C24.6429 16.69 24.8429 16.45 24.9829 16.15C25.1229 15.84 25.1929 15.49 25.1929 15.1C25.1929 14.7 25.1179 14.35 24.9679 14.05C24.8279 13.75 24.6279 13.515 24.3679 13.345C24.1179 13.175 23.8229 13.09 23.4829 13.09C23.1329 13.09 22.8229 13.175 22.5529 13.345C22.2829 13.515 22.0729 13.75 21.9229 14.05C21.7729 14.35 21.6929 14.7 21.6829 15.1C21.6929 15.49 21.7729 15.84 21.9229 16.15C22.0729 16.45 22.2829 16.69 22.5529 16.87C22.8329 17.04 23.1479 17.125 23.4979 17.125Z" fill="white"/>
</g>
<defs>
<clipPath id="clip0_3_2">
<rect width="32" height="32" fill="white"/>
</clipPath>
</defs>
</svg>
