<svg width="92" height="92" viewBox="0 0 92 92" fill="none" xmlns="http://www.w3.org/2000/svg">
<circle cx="46" cy="46" r="46" fill="black"/>
<path d="M20.98 56.54C19.54 56.54 18.19 56.33 16.93 55.91C15.67 55.46 14.56 54.83 13.6 54.02C12.64 53.18 11.89 52.16 11.35 50.96L16.435 48.62C16.885 49.34 17.5 49.97 18.28 50.51C19.06 51.02 19.96 51.275 20.98 51.275C21.97 51.275 22.735 51.14 23.275 50.87C23.815 50.57 24.085 50.15 24.085 49.61C24.085 49.07 23.86 48.68 23.41 48.44C22.99 48.17 22.405 47.945 21.655 47.765L19.585 47.225C17.425 46.655 15.715 45.755 14.455 44.525C13.225 43.265 12.61 41.825 12.61 40.205C12.61 37.895 13.345 36.11 14.815 34.85C16.315 33.59 18.43 32.96 21.16 32.96C22.57 32.96 23.875 33.17 25.075 33.59C26.305 34.01 27.355 34.595 28.225 35.345C29.095 36.095 29.695 36.965 30.025 37.955L25.12 40.205C24.91 39.605 24.4 39.125 23.59 38.765C22.78 38.375 21.97 38.18 21.16 38.18C20.35 38.18 19.72 38.36 19.27 38.72C18.85 39.05 18.64 39.515 18.64 40.115C18.64 40.505 18.85 40.835 19.27 41.105C19.69 41.345 20.29 41.555 21.07 41.735L23.995 42.455C25.465 42.815 26.635 43.4 27.505 44.21C28.405 44.99 29.05 45.875 29.44 46.865C29.86 47.825 30.07 48.77 30.07 49.7C30.07 51.05 29.665 52.25 28.855 53.3C28.075 54.32 26.995 55.115 25.615 55.685C24.265 56.255 22.72 56.54 20.98 56.54ZM40.9969 56L49.5469 33.5H55.6669L46.4419 56H40.9969ZM40.5019 56L31.2769 33.5H37.3969L45.9469 56H40.5019ZM67.9537 65.585C66.2437 65.585 64.7287 65.465 63.4087 65.225C62.0887 64.985 60.9787 64.67 60.0787 64.28C59.1787 63.89 58.4437 63.5 57.8737 63.11L60.2137 58.34C60.6337 58.58 61.1887 58.85 61.8787 59.15C62.5687 59.48 63.3937 59.75 64.3537 59.96C65.3137 60.2 66.4237 60.32 67.6837 60.32C68.8837 60.32 69.9337 60.08 70.8337 59.6C71.7637 59.15 72.4837 58.43 72.9937 57.44C73.5337 56.48 73.8037 55.25 73.8037 53.75V33.5H79.7437V53.57C79.7437 56.09 79.2637 58.25 78.3037 60.05C77.3437 61.88 75.9787 63.26 74.2087 64.19C72.4687 65.12 70.3837 65.585 67.9537 65.585ZM66.7837 55.37C64.7137 55.37 62.9137 54.92 61.3837 54.02C59.8837 53.12 58.7137 51.86 57.8737 50.24C57.0337 48.62 56.6137 46.7 56.6137 44.48C56.6137 42.14 57.0337 40.115 57.8737 38.405C58.7137 36.665 59.8837 35.33 61.3837 34.4C62.9137 33.44 64.7137 32.96 66.7837 32.96C68.5837 32.96 70.1437 33.44 71.4637 34.4C72.7837 35.33 73.8037 36.665 74.5237 38.405C75.2437 40.145 75.6037 42.215 75.6037 44.615C75.6037 46.775 75.2437 48.665 74.5237 50.285C73.8037 51.905 72.7837 53.165 71.4637 54.065C70.1437 54.935 68.5837 55.37 66.7837 55.37ZM68.4937 50.375C69.5137 50.375 70.3987 50.12 71.1487 49.61C71.9287 49.07 72.5287 48.35 72.9487 47.45C73.3687 46.52 73.5787 45.47 73.5787 44.3C73.5787 43.1 73.3537 42.05 72.9037 41.15C72.4837 40.25 71.8837 39.545 71.1037 39.035C70.3537 38.525 69.4687 38.27 68.4487 38.27C67.3987 38.27 66.4687 38.525 65.6587 39.035C64.8487 39.545 64.2187 40.25 63.7687 41.15C63.3187 42.05 63.0787 43.1 63.0487 44.3C63.0787 45.47 63.3187 46.52 63.7687 47.45C64.2187 48.35 64.8487 49.07 65.6587 49.61C66.4987 50.12 67.4437 50.375 68.4937 50.375Z" fill="white"/>
</svg>
